<svg xmlns="http://www.w3.org/2000/svg" xmlns:xlink="http://www.w3.org/1999/xlink" width="626" height="462" viewBox="0 0 626 462">
    <defs>
        <path id="a" d="M0 462h625.833V.338H0z"/>
    </defs>
    <g fill="none" fill-rule="evenodd">
        <path fill="#FDB300" d="M35.482 130.909l22.422-2.371 22.423 2.37 17.36 23.304-39.783 46.326-39.782-46.326z"/>
        <path fill="#EA6C00" d="M34.236 154.211l23.668 46.326-39.782-46.326z"/>
        <path fill="#EA6C00" d="M81.573 154.211l-23.67 46.326 39.783-46.326z"/>
        <path fill="#FDAD00" d="M34.236 154.211h47.337l-23.669 46.326z"/>
        <path fill="#FDD231" d="M57.904 128.537l-22.423 2.371-1.245 23.304zM57.904 128.537l22.423 2.371 1.246 23.304z"/>
        <path fill="#FDAD00" d="M97.686 154.211l-17.359-23.303 1.246 23.303zM18.122 154.211l17.359-23.303-1.245 23.303z"/>
        <path fill="#FEEEB7" d="M57.904 128.537l-23.668 25.674h47.337z"/>
        <g transform="translate(0 -.338)">
            <path fill="#0ACF83" d="M488.757 117.055c7.36 0 13.334-5.974 13.334-13.334V90.388h-13.334c-7.36 0-13.332 5.974-13.332 13.333 0 7.36 5.972 13.334 13.332 13.334"/>
            <path fill="#A259FF" d="M475.425 77.055c0-7.36 5.972-13.334 13.332-13.334h13.334v26.667h-13.334c-7.36 0-13.332-5.974-13.332-13.333"/>
            <path fill="#F24E1E" d="M475.425 50.388c0-7.36 5.972-13.333 13.332-13.333h13.334v26.666h-13.334c-7.36 0-13.332-5.974-13.332-13.333"/>
            <path fill="#FF7262" d="M502.09 37.055h13.334c7.36 0 13.334 5.973 13.334 13.333s-5.975 13.333-13.334 13.333h-13.333V37.055z"/>
            <path fill="#1ABCFE" d="M528.758 77.055c0 7.36-5.975 13.333-13.334 13.333-7.36 0-13.333-5.974-13.333-13.333 0-7.36 5.974-13.334 13.333-13.334 7.36 0 13.334 5.974 13.334 13.334"/>
            <mask id="b" fill="#fff">
                <use xlink:href="#a"/>
            </mask>
            <path fill="#001D26" d="M226.173 69.262h67.691V3.415h-67.691z" mask="url(#b)"/>
            <path fill="#00C8FF" d="M272.88 29.877c-2.431 0-3.262 1.23-3.262 2.246 0 1.108.555 1.877 3.816 3.569 4.83 2.337 6.339 4.584 6.339 7.877 0 4.922-3.754 7.57-8.831 7.57-2.677 0-4.985-.556-6.308-1.325-.215-.092-.246-.245-.246-.492V44.8c0-.307.154-.4.369-.245 1.938 1.26 4.154 1.814 6.185 1.814 2.43 0 3.446-1.015 3.446-2.4 0-1.108-.708-2.092-3.816-3.693-4.37-2.09-6.184-4.213-6.184-7.752 0-3.97 3.107-7.262 8.492-7.262 2.646 0 4.492.4 5.508.861.246.154.307.4.307.616v4.215c0 .247-.153.4-.461.309-1.354-.864-3.354-1.386-5.354-1.386zm-26.461 3.66c.707.063 1.26.063 2.492.063 3.6 0 6.985-1.263 6.985-6.155 0-3.907-2.431-5.877-6.524-5.877-1.23 0-2.4.063-2.953.092v11.878zM240.942 17.2c0-.216.43-.37.676-.37 1.97-.092 4.893-.153 7.939-.153 8.523 0 11.846 4.677 11.846 10.677 0 7.815-5.662 11.169-12.615 11.169-1.17 0-1.57-.063-2.4-.063v11.816c0 .246-.092.37-.37.37h-4.707c-.246 0-.37-.093-.37-.37V17.199zm-14.77 52.061h67.692V3.415h-67.691V69.26zm-3.076 3.077h73.846v-72h-73.846v72z" mask="url(#b)"/>
            <path fill="#261300" d="M105.818 107.016h66.856V41.983h-66.856z" mask="url(#b)"/>
            <path fill="#FF7C00" d="M105.818 107.016h66.856V41.983h-66.856v65.033zm-3.039 3.039h72.935V38.944h-72.935v71.111z" mask="url(#b)"/>
            <path fill="#FF7C00" d="M150.582 64.289c0-.243.09-.365.364-.365h4.772c.243 0 .364.092.364.365v23.977c0 .243-.061.365-.364.365h-4.711c-.304 0-.395-.153-.395-.396V64.289h-.03zm-.365-6.898c0-1.946 1.368-3.1 3.099-3.1 1.855 0 3.1 1.246 3.1 3.1 0 2.005-1.307 3.099-3.16 3.099-1.763 0-3.04-1.094-3.04-3.1zm-13.675 16.896c-.851-3.373-2.856-10.727-3.616-14.283h-.061c-.638 3.556-2.25 9.572-3.525 14.283h7.202zm-8.448 4.923l-2.401 9.117c-.061.243-.152.304-.456.304h-4.467c-.304 0-.365-.092-.304-.456l8.63-30.207c.152-.547.244-1.033.304-2.523 0-.213.09-.303.244-.303h6.38c.214 0 .305.06.366.303l9.664 32.79c.06.243 0 .396-.243.396h-5.045c-.243 0-.395-.061-.455-.274l-2.523-9.147h-9.694z" mask="url(#b)"/>
            <path fill="#FF26BE" d="M414.907 72.337h-47.692c-7.231 0-13.078-5.846-13.078-13.076V13.414c0-7.23 5.847-13.077 13.078-13.077h47.692c7.23 0 13.077 5.847 13.077 13.077v45.847c0 7.23-5.847 13.076-13.077 13.076" mask="url(#b)"/>
            <path fill="#2E001F" d="M413.738 69.261h-45.354c-6.154 0-11.169-5.016-11.169-11.17V14.583c0-6.153 5.015-11.169 11.169-11.169h45.323c6.184 0 11.169 5.016 11.169 11.17V58.06c.031 6.184-4.985 11.2-11.138 11.2" mask="url(#b)"/>
            <path fill="#FFD9F2" d="M407.4 31.169c-.432-.186-1.047-.309-1.785-.309-3.877 0-6.585 2.986-6.585 7.94 0 5.66 2.77 7.938 6.246 7.938.738 0 1.538-.091 2.123-.34v-15.23zm-13.939 7.876c0-7.169 4.77-12.77 12.338-12.77.646 0 .985 0 1.6.063v-8.154c0-.184.154-.308.308-.308h4.861c.246 0 .308.092.308.246v28.246c0 .831 0 1.877.154 3.017 0 .184-.062.245-.246.337a18.326 18.326 0 0 1-7.877 1.785c-6.677.03-11.446-4.093-11.446-12.462zm-10.124-5.016l8.616 16.554c.154.248.061.494-.185.494h-5.353c-.339 0-.493-.093-.647-.4-1.969-4.063-3.969-8.123-6.03-12.492h-.062a462.454 462.454 0 0 1-5.846 12.523c-.154.245-.308.337-.554.337H368.2c-.308 0-.338-.245-.185-.43l8.431-16.062-8.153-16.245c-.185-.247 0-.431.184-.431h5.292c.308 0 .431.062.554.338a637.623 637.623 0 0 1 5.754 12.338h.061c1.785-4.062 3.754-8.277 5.662-12.308.154-.245.246-.4.554-.4h4.954c.246 0 .338.184.185.43l-8.155 15.755z" mask="url(#b)"/>
            <path fill="#DC395F" d="M619.306 128.875H560.36a6.528 6.528 0 0 0-6.528 6.528v58.947a6.527 6.527 0 0 0 6.528 6.525h58.946a6.526 6.526 0 0 0 6.526-6.525v-58.947a6.527 6.527 0 0 0-6.526-6.528" mask="url(#b)"/>
            <path fill="#FFF" d="M568.775 174.738a14.916 14.916 0 0 0-.388 3.256c0 3.816 2.07 6.35 6.468 6.35 3.65 0 6.606-2.166 8.735-5.664l-1.3 5.218h7.244l4.14-16.604c1.035-4.204 3.04-6.387 6.08-6.387 2.393 0 3.88 1.488 3.88 3.945 0 .712-.064 1.488-.323 2.329l-2.135 7.632a11.49 11.49 0 0 0-.452 3.235c0 3.623 2.134 6.273 6.597 6.273 3.816 0 6.856-2.457 8.538-8.343l-2.846-1.098c-1.423 3.943-2.652 4.656-3.622 4.656-.97 0-1.488-.647-1.488-1.94 0-.582.13-1.228.323-2.005l2.07-7.436c.518-1.746.712-3.295.712-4.717 0-5.562-3.364-8.466-7.438-8.466-3.816 0-7.697 3.443-9.638 7.065l1.423-6.502h-11.059l-1.553 5.727h5.175l-3.187 12.757c-2.503 5.563-7.099 5.654-7.676 5.525-.947-.214-1.552-.575-1.552-1.805 0-.71.128-1.73.452-2.96l4.851-19.244h-12.289l-1.553 5.727h5.11l-3.298 13.476m9.12-23.21c2.393 0 4.398-1.875 4.398-4.334 0-2.456-2.005-4.332-4.399-4.332-2.393 0-4.397 1.876-4.397 4.332 0 2.459 2.004 4.335 4.397 4.335" mask="url(#b)"/>
            <path stroke="#89868F" stroke-linecap="round" stroke-width="6" d="M3 459h560" mask="url(#b)" opacity=".24"/>
            <path fill="#2B253D" d="M537.735 444.49c0-6.626-4.952-12-11.061-12H124.796c-6.109 0-11.061 5.374-11.061 12 0 6.629 4.952 12 11.061 12h401.878c6.109 0 11.061-5.371 11.061-12M485.735 422.49h-320c-8.8 0-16-7.2-16-16v-192c0-8.8 7.2-16 16-16h320c8.8 0 16 7.2 16 16v192c0 8.8-7.2 16-16 16" mask="url(#b)"/>
            <path fill="#FFF" d="M471.735 402.49h-292c-4.4 0-8-3.6-8-8v-168c0-4.398 3.6-8 8-8h292c4.399 0 8 3.602 8 8v168c0 4.4-3.601 8-8 8" mask="url(#b)"/>
            <path fill="#4705FA" d="M288.93 360.172a8.85 8.85 0 1 1-17.699 0 8.85 8.85 0 0 1 17.698 0M312.821 267.261a8.85 8.85 0 0 1-17.697 0 8.849 8.849 0 1 1 17.697 0M357.29 298.231a8.849 8.849 0 1 1-17.696 0 8.849 8.849 0 0 1 17.697 0M288.93 329.202a8.85 8.85 0 1 1-17.699 0 8.85 8.85 0 0 1 17.698 0M330.739 338.05h-26.767c-4.867 0-8.848-3.98-8.848-8.849 0-4.867 3.981-8.848 8.848-8.848h26.767c4.867 0 8.849 3.981 8.849 8.848 0 4.868-3.982 8.85-8.849 8.85M324.55 307.08h-44.47c-4.866 0-8.847-3.981-8.847-8.85 0-4.865 3.98-8.847 8.847-8.847h44.47c4.868 0 8.85 3.982 8.85 8.848 0 4.868-3.982 8.849-8.85 8.849M327.864 258.412h53.977c4.867 0 8.848 3.982 8.848 8.85 0 4.866-3.981 8.848-8.848 8.848h-53.977c-4.867 0-8.85-3.982-8.85-8.848 0-4.868 3.983-8.85 8.85-8.85" mask="url(#b)"/>
            <path fill="#F0395E" d="M76.38 452.755l-17.978.906a1.798 1.798 0 0 1-1.887-1.707l-7.075-140.22a1.798 1.798 0 0 1 1.707-1.889l17.976-.907a1.8 1.8 0 0 1 1.889 1.707l7.075 140.221a1.8 1.8 0 0 1-1.707 1.89" mask="url(#b)"/>
            <path stroke="#FFF" d="M71.14 313.193l-3.596.182M71.593 322.181l-3.596.182M71.231 314.99l-1.798.092M71.321 316.789l-1.797.09M71.412 318.586l-1.797.09M71.503 320.383l-1.798.091M71.593 322.181l-3.596.182M72.047 331.17l-3.596.181M71.684 323.979l-1.798.091M71.775 325.777l-1.798.09M71.866 327.575l-1.798.09M71.957 329.373l-1.798.09M72.047 331.17l-3.596.181M72.5 340.159l-3.595.182M72.137 332.967l-1.797.091M72.228 334.765l-1.798.091M72.319 336.563l-1.798.091M72.41 338.36l-1.798.092M72.5 340.159l-3.595.182M72.954 349.147l-3.595.182M72.591 341.957l-1.797.09M72.682 343.754l-1.798.09M72.773 345.551l-1.798.091M72.864 347.35l-1.798.09M72.954 349.147l-3.595.182M73.408 358.135l-3.596.182M73.045 350.945l-1.798.09M73.135 352.743l-1.798.09M73.226 354.54l-1.798.091M73.317 356.338l-1.798.09M73.408 358.135l-3.596.182M73.861 367.125l-3.595.18M73.499 359.933l-1.798.091M73.59 361.731l-1.799.091M73.68 363.529l-1.798.09M73.77 365.327l-1.797.09M73.861 367.125l-3.595.18M74.315 376.113l-3.596.182M73.952 368.922l-1.798.09M74.043 370.72l-1.798.09M74.133 372.517l-1.797.091M74.224 374.315l-1.798.09M74.315 376.113l-3.596.182M74.768 385.101l-3.596.182M74.406 377.91l-1.798.092M74.496 379.709l-1.797.09M74.587 381.506l-1.798.09M74.677 383.303l-1.798.091M74.768 385.101l-3.596.182M75.222 394.09l-3.596.181M74.86 386.899l-1.799.09M74.95 388.697l-1.798.09M75.04 390.495l-1.797.09M75.132 392.293l-1.799.09M75.222 394.09l-3.596.181M75.675 403.079l-3.596.182M75.312 395.887l-1.797.091M75.403 397.685l-1.798.091M75.494 399.483l-1.798.09M75.585 401.28l-1.798.092M75.675 403.079l-3.596.182M76.129 412.067l-3.595.182M75.766 404.877l-1.798.09M75.857 406.674l-1.798.09M75.948 408.471l-1.798.091M76.038 410.269l-1.797.091M76.129 412.067l-3.595.182M76.583 421.055l-3.596.182M76.22 413.865l-1.799.09M76.31 415.663l-1.798.09M76.401 417.46l-1.798.091M76.492 419.258l-1.798.09M76.583 421.055l-3.596.182M77.036 430.044l-3.596.182M76.674 422.853l-1.799.091M76.764 424.65l-1.798.092M76.854 426.449l-1.797.09M76.945 428.247l-1.798.09M77.036 430.044l-3.596.182M77.49 439.033l-3.596.182M77.127 431.842l-1.798.09M77.218 433.64l-1.799.09M77.308 435.437l-1.798.091M77.4 437.235l-1.799.09M77.49 439.033l-3.596.182M77.943 448.021l-3.596.182M77.58 440.83l-1.797.092M77.67 442.628l-1.796.091M77.761 444.426l-1.798.09M77.852 446.223l-1.798.091" mask="url(#b)"/>
            <path fill="#29CC76" d="M53.727 432.125l-8.974.692-7.082-91.781 8.973-.692z" mask="url(#b)"/>
            <path fill="#FAC800" d="M39.75 323.846l-2.078 17.19 8.973-.693-4.692-16.667c-.334-1.185-2.055-1.053-2.202.17" mask="url(#b)"/>
            <path fill="#2B253D" d="M41.953 323.676c-.334-1.186-2.054-1.053-2.202.17l-.685 5.653 4.43-.342-1.543-5.48zM83.678 451.426l-8.97-.726 7.413-91.755 8.971.724z" mask="url(#b)"/>
            <path fill="#29CC76" d="M91.238 357.875l-8.971-.724 1.16-14.353 8.971.724z" mask="url(#b)"/>
            <path fill="#FAC800" d="M91.41 341.637a1.815 1.815 0 0 0 1.72-.922c1.93-3.403 3.134-6.409 3.41-10.56.219-3.285-.655-6.509-1.671-9.574-.935-2.82-3.18-7.533-3.925-8.928-.616-1.15-1.694-.912-1.678.258.02 1.314-.06 2.154-.12 2.796-.361 3.924-3.706 6.538-5.864 9.693-1.574 2.3-2.584 5.12-2.642 7.991-.05 2.572.872 5.864 2.382 7.94.31.426.79.692 1.317.734l7.072.572z" mask="url(#b)"/>
            <path fill="#F0395E" d="M91.093 359.67l-8.972-.726.147-1.794 8.97.725zM92.398 343.522l-8.97-.725.144-1.794 8.971.725z" mask="url(#b)"/>
            <path fill="#4705FA" d="M93.167 380.537l-5.8 72a3.6 3.6 0 0 1-3.587 3.312h-38.2a3.601 3.601 0 0 1-3.59-3.312l-5.797-72a3.6 3.6 0 0 1 3.588-3.89h49.797a3.6 3.6 0 0 1 3.589 3.89" mask="url(#b)"/>
            <g stroke="#89868F" stroke-dasharray="8,16" stroke-linecap="round" stroke-width="2" mask="url(#b)" opacity=".24">
                <path d="M118.111 154.478s34.53-23.354 91.313-12.766c29.949 5.585 51.122 16.9 65.486 27.902M194.261 88.63s74.997 18.386 116.474 109.027M271.438 84.324s26.362 39.285 40.902 80.55M533.358 154.478s-34.53-23.354-91.312-12.766c-68.84 12.837-91.31 55.946-91.31 55.946M457.208 88.63s-74.996 18.386-116.473 109.027M380.032 84.324s-24.515 36.532-39.304 76.144"/>
            </g>
            <path fill="#FAC800" d="M305.92 191.658h-38.37c-4.848 0-8.815-3.967-8.815-8.815v-50.37c0-4.847 3.967-8.815 8.816-8.815h38.369c4.849 0 8.815 3.968 8.815 8.815v50.37c0 4.848-3.966 8.815-8.815 8.815" mask="url(#b)"/>
            <path fill="#FFF" d="M275.902 149.474l4.383 3.69a1 1 0 0 0 1.379-.087l9.322-10.122a1 1 0 0 1 1.468-.003l12.579 13.528c.595.64.14 1.681-.733 1.681h-35.422c-.872 0-1.327-1.038-.736-1.678l6.38-6.922a1 1 0 0 1 1.38-.087" mask="url(#b)"/>
        </g>
        <g fill="#FFF" font-family="Raleway-Bold, Raleway" font-size="18" font-weight="bold">
            <text transform="translate(270 162)">
                <tspan x=".876" y="17.684">JP</tspan>
            </text>
            <text transform="translate(270 162)">
                <tspan x="21.126" y="17.684">G</tspan>
            </text>
        </g>
        <path fill="#FAC800" d="M377.92 227.153h-38.37c-4.848 0-8.815-3.967-8.815-8.815v-50.37c0-4.848 3.967-8.815 8.816-8.815h38.369c4.849 0 8.815 3.967 8.815 8.815v50.37c0 4.848-3.966 8.815-8.815 8.815"/>
        <path fill="#FFF" d="M347.902 184.968l4.383 3.69a1 1 0 0 0 1.379-.087l9.322-10.12a1 1 0 0 1 1.468-.004l12.579 13.527c.595.64.14 1.682-.733 1.682h-35.422c-.872 0-1.327-1.038-.736-1.678l6.38-6.922a1 1 0 0 1 1.38-.088"/>
        <text fill="#FFF" font-family="Raleway-Bold, Raleway" font-size="18" font-weight="bold" transform="translate(0 -1)">
            <tspan x="339.876" y="217.517">PNG</tspan>
        </text>
    </g>
</svg>
