<svg width="600" height="506" xmlns="http://www.w3.org/2000/svg"><g fill="none" fill-rule="evenodd"><path d="M66.222 481.612c0 15.917-9.461 21.474-21.134 21.474a36.319 36.319 0 0 1-2.415-.082c-10.534-.746-18.719-6.59-18.719-21.392 0-15.319 19.576-34.648 21.047-36.079l.002-.003.085-.082s21.134 20.248 21.134 36.164z" fill="#FFF200" fill-rule="nonzero"/><path d="M44.318 500.651l7.73-10.8-7.749 11.986-.02 1.24a34.49 34.49 0 0 1-1.606-.073l.833-15.924-.007-.124.015-.023.078-1.504-7.768-12.016 7.793 10.888.018.32.63-12.032-6.651-12.417 6.731 10.305.656-24.944.002-.085v.082l-.11 19.67 6.622-7.798-6.648 9.493-.175 10.772 6.182-10.338-6.208 11.923-.098 5.989 8.975-14.39-9.008 16.48-.217 13.32z" fill="#3F3D56" fill-rule="nonzero"/><path d="M519.309 279.378c0 124.802-56.665 223.256-126.446 225.974-91.001 3.544-209.934-87.192-126.447-225.974C330.75 172.435 323.028 53.404 392.863 53.404c69.834 0 126.446 101.172 126.446 225.974z" fill="#F2F2F2" fill-rule="nonzero"/><path fill="#FFF200" fill-rule="nonzero" d="M265.606 345.725H445.899V502.295H265.606z"/><path d="M0 502.295h599.306" stroke="#3F3D56" stroke-width="2"/><path d="M395.786 0a17.262 17.262 0 0 0-6.928 33.073c-.072-1.328.029-2.66.3-3.961.332-1.402 2.22-9.409 2.22-9.409a6.59 6.59 0 0 1-.555-2.727c0-2.559 1.48-4.47 3.329-4.47 1.572 0 2.327 1.18 2.327 2.59 0 1.58-1.01 3.937-1.526 6.125a2.669 2.669 0 0 0 2.728 3.322c3.267 0 5.471-4.2 5.471-9.178 0-3.783-2.55-6.611-7.181-6.611a8.179 8.179 0 0 0-8.5 8.268 4.975 4.975 0 0 0 1.14 3.383.844.844 0 0 1 .247.963c-.085.316-.27 1.079-.354 1.387a.593.593 0 0 1-.863.431c-2.412-.986-3.537-3.621-3.537-6.596 0-4.9 4.138-10.78 12.337-10.78 6.588 0 10.926 4.77 10.926 9.886 0 6.774-3.768 11.829-9.316 11.829-1.865 0-3.614-1.01-4.215-2.15 0 0-1.002 3.976-1.217 4.746a14.347 14.347 0 0 1-1.734 3.7A17.264 17.264 0 1 0 395.785 0zm170.408 124.833c-1.363.603-2.806 1-4.285 1.18a7.486 7.486 0 0 0 3.283-4.13 14.824 14.824 0 0 1-4.74 1.81 7.458 7.458 0 0 0-12.906 5.101 7.304 7.304 0 0 0 .193 1.703 21.142 21.142 0 0 1-15.381-7.806 7.475 7.475 0 0 0 2.32 9.971 7.287 7.287 0 0 1-3.391-.932v.092a7.467 7.467 0 0 0 5.987 7.32 7.51 7.51 0 0 1-1.965.263c-.47 0-.94-.046-1.402-.139a7.472 7.472 0 0 0 6.973 5.186 14.958 14.958 0 0 1-11.05 3.09 20.853 20.853 0 0 0 11.42 3.375c13.74 0 21.245-11.381 21.245-21.252 0-.324-.008-.647-.023-.963a15.187 15.187 0 0 0 3.722-3.869zM279.048 21.972h-26.323c-.902 0-1.633.731-1.633 1.633v26.323c0 .902.731 1.633 1.633 1.633h13.162V39.85h-3.537v-4.315h3.537v-3.19c0-3.823 2.65-5.903 6.064-5.903 1.634 0 3.39.123 3.799.177v3.992h-2.72c-1.857 0-2.212.878-2.212 2.173v2.75h4.423l-.578 4.316h-3.845V51.56h8.23c.902 0 1.633-.731 1.633-1.633V23.605c0-.902-.731-1.633-1.633-1.633zm3.319 109.57a6.183 6.183 0 0 1 6.164 6.164v12.329a6.183 6.183 0 0 1-6.164 6.164h-12.33a6.183 6.183 0 0 1-6.164-6.164v-12.33a6.183 6.183 0 0 1 6.165-6.164h12.329zm0-2.467h-12.33a8.656 8.656 0 0 0-8.63 8.63v12.33a8.656 8.656 0 0 0 8.63 8.63h12.33a8.656 8.656 0 0 0 8.63-8.63v-12.33a8.656 8.656 0 0 0-8.63-8.63z" fill="#3F3D56" fill-rule="nonzero"/><path d="M284.216 137.706a1.85 1.85 0 1 1 0-3.699 1.85 1.85 0 0 1 0 3.699zm-8.014 1.233a4.932 4.932 0 1 1 0 9.863 4.932 4.932 0 0 1 0-9.863zm0-2.466a7.397 7.397 0 1 0 0 14.795 7.397 7.397 0 0 0 0-14.795zM497.698 7.447H473.01a2.413 2.413 0 0 0-2.527 2.304v24.743a2.603 2.603 0 0 0 2.527 2.535h24.681a2.47 2.47 0 0 0 2.374-2.535V9.75a2.268 2.268 0 0 0-2.366-2.304zm-18.046 24.658h-4.239V18.928h4.239v13.177zm-1.973-15.18h-.03a2.304 2.304 0 1 1 .03 0zm17.46 15.18h-4.237V24.9c0-1.726-.617-2.905-2.15-2.905a2.319 2.319 0 0 0-2.173 1.564 2.853 2.853 0 0 0-.146 1.04v7.506h-4.239V18.928h4.239v1.834a4.29 4.29 0 0 1 3.822-2.142c2.781 0 4.885 1.834 4.885 5.787v7.698z" fill="#3F3D56" fill-rule="nonzero"/><path d="M380.718 189.93s29.997.816 34.951 2.618c4.955 1.803 7.17 14.692 7.17 14.692l-23.291 7.32-17.42-.986-13.111.926 7.32-19.172 4.38-5.398z" fill="#2F2E41" fill-rule="nonzero"/><path d="M382.012 180.087s1.973 7.623-2.407 13.02c-4.38 5.398 18.83 24.63 18.83 24.63l12.245-2.104s-2.699-23.422.926-29.353c3.625-5.93-29.594-6.193-29.594-6.193z" fill="#9F616A" fill-rule="nonzero"/><path d="M382.012 180.087s1.973 7.623-2.407 13.02c-4.38 5.398 18.83 24.63 18.83 24.63l12.245-2.104s-2.699-23.422.926-29.353c3.625-5.93-29.594-6.193-29.594-6.193z" fill="#000" fill-rule="nonzero" opacity=".1"/><path fill="#9F616A" fill-rule="nonzero" d="M463.4451 402.958442L436.428808 438.786305 454.86588 449.550885 480.241558 408.033294z"/><path d="M444.494 439.39s-9.949-11.56-9.505-8.982c.443 2.578-7.08 24.44-.081 26.554 6.998 2.114 67.013 7.723 67.84.946.825-6.777-17.905-11.52-17.905-11.52s-11.127-10.693-13.594-9.606c-2.467 1.088-26.755 2.608-26.755 2.608z" fill="#2F2E41" fill-rule="nonzero"/><path fill="#9F616A" fill-rule="nonzero" d="M457.383471 437.174734L478.962928 473.939079 495.255726 464.504132 473.494923 434.405667z"/><path d="M491.449 349.71l-6.404 9.063s-30.531 42.403-27.29 45.827c3.243 3.423 16.747 16.363 23.614 13.855 6.868-2.507 31.266-45.847 31.266-45.847l-6.364-25.446-14.822 2.548z" fill="#2F2E41" fill-rule="nonzero"/><path d="M359.93 341.131s6.837 12.758 24.166 17.078c17.33 4.32 35.436 13.151 36.08 13.04.644-.11 2.467-1.087 2.91 1.49.443 2.578 5.196 7.07 5.196 7.07s19.143 65.05 26.453 65.12c7.31.07 22.335-5.166 22.647-7.21.312-2.044-22.385-68.474-22.607-69.763l-2.658-15.467s30.017 4.793 32.817 5.64c2.8.845 27.701 14.48 27.701 14.48s25.386-18.297 1.642-36.775c-23.745-18.478-64.557-32.031-64.557-32.031l-14.641-4.119-12.76-.761-1.88-7.205-30.22 1.743-31.538 13.383 1.248 34.287z" fill="#2F2E41" fill-rule="nonzero"/><circle fill="#9F616A" fill-rule="nonzero" cx="399.815" cy="171.719" r="23.541"/><path d="M378.517 190.64l2.832-.486s5.113 19.69 20.933 22.942c0 0 7.806-9.351 7.472-10.93-.333-1.577 6.182-9.995 9.646-5.283 3.464 4.713-.845 87.727 2.065 89.217 2.91 1.49 9.153 3.072 4.128 8.58S400.61 307.6 396.19 305.04c-4.42-2.557-13.453-24.227-17.36-31.517-3.907-7.29-10.16-32.092-10.16-32.092s-7.986-27.158-3.072-33.31c4.914-6.153 12.92-17.482 12.92-17.482z" fill="#D0CDE1" fill-rule="nonzero"/><path d="M401.047 292.84a134.29 134.29 0 0 1-2.696 17.19c-1.155 4.61-2.5 7.394-4.033 7.275-3.915-.292-5.694 5.449-6.611 12.067-.98 7.022-.98 15.033-1.518 17.863-.712 3.74-5.267 6.595-14.368 5.757a64.222 64.222 0 0 1-15.831-3.882c-12.289-4.468-11.925-40.7-9.869-67.587 1.257-16.479 3.147-29.455 3.147-29.455s-3.732-11.134-4.926-18.765a24.943 24.943 0 0 1-.356-4.215c.182-6.666 12.352-24.68 19.706-35.9 7.362-11.221 17.404-2.99 17.404-2.99l-3.495 10.55s5.417 8.358 5.456 16.313c.04 7.955 12.969 13.696 17.61 17.547 2.918 2.42 2.847 34.722.38 58.231zm10.222-98.872s.848 1.003 4.733.514c4.658-.587 11.063 1.025 12.551 5.473 2.73 8.156 10.423 41.335 10.423 41.335s3.202 37.933 4.642 46.31c1.44 8.379.725 15.8 2.145 20.2 1.42 4.4-14.017-8.206-19.707-6.565-5.689 1.641-9.344-19.626-8.63-27.047.716-7.421 1.32-15.487-.654-23.11-1.974-7.622 1.526-27.797 1.395-32.419-.131-4.622-12.545-16.27-6.898-24.69z" fill="#2F2E41" fill-rule="nonzero"/><path d="M427.926 311.861s24.924 13.598 27.31 32.953c2.385 19.354-33.338-18.74-33.338-18.74l6.028-14.213zm14.228-13.724s7.637 38.496 19.535 36.452c11.898-2.045-6.646-38.668-6.646-38.668l-12.89 2.216z" fill="#9F616A" fill-rule="nonzero"/><path d="M482.9 465.964s-6.092 7.019-7.603 5.951c-1.51-1.067-4.984 13.463-1.852 16.243 3.131 2.779 15.195 7.34 15.326 11.962.13 4.622 32.484 3.706 33.642-1.138 1.158-4.843-4.058-15.89-7.723-17.914-3.666-2.024-17.218-20.652-17.218-20.652s-10.615 1.55-14.572 5.548z" fill="#2F2E41" fill-rule="nonzero"/><path d="M423.955 335.406c-5.78-4.08-21.92-5.093-36.248-6.034-6.287-.403-12.225-.798-16.788-1.439-4.396-.609-8.35-4.626-11.861-10.612-5.322-9.07-9.624-22.671-12.937-35.798 1.257-16.479 3.147-29.455 3.147-29.455s-3.732-11.134-4.926-18.765a10.042 10.042 0 0 1 3.179-2.863c15.198-6.523 29.708 57.678 31.55 67.753.033.166.056.324.08.458.893 5.188 10.549 9.624 19.2 11.38 5.33 1.083 10.287 1.154 12.573-.254 6.001-3.685 24.458 11.063 25.857 11.482 1.4.427-4.523 20.022-12.826 14.147z" fill="#000" fill-rule="nonzero" opacity=".1"/><path d="M347.523 226.488s-11.046 5.216-6.193 29.595c4.854 24.379 14.632 65.825 29.585 67.9 14.954 2.074 44.73 1.6 53.037 7.471 8.307 5.87 14.228-13.725 12.829-14.148-1.4-.423-19.858-15.165-25.86-11.48-6 3.686-30.329-2.748-31.769-11.126-1.44-8.378-16.182-74.848-31.629-68.212zm79.6-11.69l12.14 28.17s1.223-.61 2.643 3.79c1.42 4.4 2.084 8.267 4.571 11.157 2.488 2.89 13.554 44.115 13.887 46.049.332 1.933-15.285 8.598-18.775 3.227-3.49-5.372-14.465-92.394-14.465-92.394zm-40.702-43.406c.903-.241 1.035-1.439 1.065-2.372.162-4.998 3.172-10.127 7.956-11.581a13.375 13.375 0 0 1 5.638-.31 21.354 21.354 0 0 1 7.635 2.546c1.246.701 2.468 1.545 3.882 1.759.933.141 4.975 1.316 5.904 1.481 2.044.364 3.943 2.192 5.904 1.512 1.876-.65 2.291-3.08 2.336-5.065.104-4.523-3.33-10.782-6.354-14.147-2.295-2.553-5.75-3.732-9.128-4.345a60.772 60.772 0 0 0-11.938-.726c-5.406.096-10.962.514-15.836 2.853-4.875 2.339-8.97 6.994-9.203 12.395-.048 1.126.068 2.256-.027 3.378-.23 2.738-1.684 5.21-2.366 7.872a14.405 14.405 0 0 0 2.011 11.511c1.81 2.663 4.653 5.07 4.548 8.288l3.923-4.064a3.221 3.221 0 0 0 .958-3.936l-1.389-5.415a4.886 4.886 0 0 1-.12-3.014c1.488-3.678 3.097 1.781 4.601 1.38z" fill="#2F2E41" fill-rule="nonzero"/><path d="M207.26 332.185c0 75.052-44.617 101.258-99.655 101.258-55.039 0-99.656-26.206-99.656-101.258 0-75.053 99.656-170.531 99.656-170.531s99.655 95.478 99.655 170.53z" fill="#F2F2F2" fill-rule="nonzero"/><path fill="#3F3D56" fill-rule="nonzero" d="M103.974262 421.961511L104.995041 359.149941 147.470366 281.442503 105.155136 349.29634 105.613459 321.053129 134.888076 264.833058 105.735301 313.579693 105.735301 313.579693 106.560567 262.783707 137.90791 218.025266 106.690201 254.795986 107.205903 161.654309 103.965762 284.956789 104.231405 279.870602 72.3605667 231.086423 103.720661 289.634947 100.751122 346.365762 100.662574 344.85974 63.9208973 293.521842 100.551358 350.178985 100.180165 357.274144 100.113577 357.380401 100.144038 357.962692 92.6096812 501.89327 102.675797 501.89327 103.883589 427.549941 140.424085 371.031641z"/></g></svg>