<svg xmlns="http://www.w3.org/2000/svg" width="659" height="458" viewBox="0 0 659 458">
    <defs>
        <linearGradient id="a" x1="49.994%" x2="49.994%" y1="100%" y2="0%">
            <stop offset="0%" stop-color="gray" stop-opacity=".25"/>
            <stop offset="54%" stop-color="gray" stop-opacity=".12"/>
            <stop offset="100%" stop-color="gray" stop-opacity=".1"/>
        </linearGradient>
        <linearGradient id="b" x1="49.994%" x2="49.994%" y1="100.005%" y2="0%">
            <stop offset="0%" stop-color="gray" stop-opacity=".25"/>
            <stop offset="54%" stop-color="gray" stop-opacity=".12"/>
            <stop offset="100%" stop-color="gray" stop-opacity=".1"/>
        </linearGradient>
        <linearGradient id="c" x1="50.003%" x2="50.003%" y1="100%" y2="-.018%">
            <stop offset="0%" stop-color="gray" stop-opacity=".25"/>
            <stop offset="54%" stop-color="gray" stop-opacity=".12"/>
            <stop offset="100%" stop-color="gray" stop-opacity=".1"/>
        </linearGradient>
        <linearGradient id="d" x1="49.998%" x2="49.998%" y1="100%" y2="0%">
            <stop offset="0%" stop-color="gray" stop-opacity=".25"/>
            <stop offset="54%" stop-color="gray" stop-opacity=".12"/>
            <stop offset="100%" stop-color="gray" stop-opacity=".1"/>
        </linearGradient>
        <linearGradient id="e" x1="50.002%" x2="50.002%" y1="99.996%" y2=".002%">
            <stop offset="0%" stop-color="gray" stop-opacity=".25"/>
            <stop offset="54%" stop-color="gray" stop-opacity=".12"/>
            <stop offset="100%" stop-color="gray" stop-opacity=".1"/>
        </linearGradient>
        <linearGradient id="f" x1="50%" x2="50%" y1="100.025%" y2="0%">
            <stop offset="0%" stop-color="gray" stop-opacity=".25"/>
            <stop offset="54%" stop-color="gray" stop-opacity=".12"/>
            <stop offset="100%" stop-color="gray" stop-opacity=".1"/>
        </linearGradient>
        <linearGradient id="g" x1="49.969%" x2="49.969%" y1="100%" y2="-.017%">
            <stop offset="0%" stop-color="gray" stop-opacity=".25"/>
            <stop offset="54%" stop-color="gray" stop-opacity=".12"/>
            <stop offset="100%" stop-color="gray" stop-opacity=".1"/>
        </linearGradient>
    </defs>
    <g fill="none" fill-rule="evenodd">
        <ellipse cx="399" cy="447.5" fill="#B8EDF2" fill-rule="nonzero" rx="76" ry="10.5"/>
        <path fill="#00BCD4" d="M311.857 61.42c-35.48-7.879-64.747-21.69-96.058-36.184-25.63-11.97-53.237-19.973-81.707-23.684-39.908-5.08-84.485 1.109-112.295 36.703-30.97 39.637-28.586 111.127 4.908 147.533 17.038 18.508 39.346 27.59 58.805 42.044 19.46 14.453 37.46 38.445 35.807 66.338-1.531 25.824-19.376 45.648-37.822 58.098-14.267 9.604-31.834 20.097-33.584 39.998-1.667 19.256 13.104 34.343 27.216 42.928 46.01 27.993 102.691 27.72 148.547-.706 16.36-10.143 31.389-23.63 48.543-31.539 45.029-20.749 94.656.137 142.333 7.778 40.36 6.468 81.746 3.119 121.066-9.8 23.613-7.754 47.316-19.61 63.908-41.7 11.96-15.929 19.414-36.091 26.409-55.999a2349.24 2349.24 0 0 0 21.52-64.139c4.127-12.923 8.196-26.084 9.261-39.921 1.938-25.06-6.213-49.798-17.302-70.974-26.306-50.25-70.657-85.552-118.663-94.522-48.007-8.97-67.133 9.236-101.218 24.026-34.085 14.79-74.194 11.601-109.674 3.722z" opacity=".1"/>
        <path fill="#00BCD4" d="M368.202 90.811v-3.6h-56.367c-2.592 0-1.01 3.622-1.01 3.622h-30.626v80.75h134.462V90.811h-46.46z" opacity=".2"/>
        <path stroke="#535461" stroke-width="2" d="M546 158s16.782-29.815 42.074-38.404a51.723 51.723 0 0 0 26.198-19.655A86.996 86.996 0 0 0 622 86"/>
        <path fill="#00BCD4" fill-rule="nonzero" d="M637.614 82.051C634.504 84.976 620 88 620 88s3.554-13.925 6.67-16.855c3.115-2.922 8.09-2.85 11.111.162 3.023 3.011 2.948 7.822-.167 10.744zM631.05 104.923c-4.003.703-17.05-3.663-17.05-3.663s10.171-8.432 14.174-9.135c2.589-.454 5.255.347 6.995 2.1 1.74 1.753 2.287 4.192 1.438 6.4-.85 2.206-2.968 3.845-5.557 4.298z"/>
        <path fill="#06D6A0" fill-rule="nonzero" d="M600.38 129.64c-3.783-1.178-12.38-10.774-12.38-10.774s13.341-2.754 17.124-1.57c2.447.763 4.256 2.645 4.745 4.937.49 2.292-.415 4.645-2.372 6.172-1.958 1.528-4.67 1.999-7.117 1.235zM577.44 145.898c-4.007-.578-14.44-8.7-14.44-8.7s12.828-4.731 16.84-4.148c2.595.38 4.763 1.956 5.689 4.136.925 2.18.468 4.632-1.2 6.432-1.669 1.8-4.295 2.674-6.889 2.295v-.015zM597.593 93.84c.763 3.922 9.343 14.05 9.343 14.05s4.177-12.603 3.415-16.525c-.44-2.594-2.11-4.777-4.365-5.7-2.254-.923-4.736-.44-6.48 1.26-1.745 1.7-2.477 4.35-1.912 6.92v-.006zM573.38 107.957c1.071 3.907 10.376 13.043 10.376 13.043s3.09-13.549 2.018-17.456c-.604-2.646-2.435-4.698-4.763-5.338-2.329-.64-4.777.236-6.369 2.28-1.592 2.043-2.07 4.92-1.242 7.487l-.02-.016z"/>
        <path fill="#00BCD4" fill-rule="nonzero" d="M600.38 129.64c-3.783-1.178-12.38-10.774-12.38-10.774s13.341-2.754 17.124-1.57c2.447.763 4.256 2.645 4.745 4.937.49 2.292-.415 4.645-2.372 6.172-1.958 1.528-4.67 1.999-7.117 1.235zM577.44 145.898c-4.007-.578-14.44-8.7-14.44-8.7s12.828-4.731 16.84-4.148c2.595.38 4.763 1.956 5.689 4.136.925 2.18.468 4.632-1.2 6.432-1.669 1.8-4.295 2.674-6.889 2.295v-.015zM597.546 93.965c.83 3.908 9.587 13.885 9.587 13.885s3.956-12.674 3.125-16.582c-.484-2.586-2.193-4.74-4.463-5.623s-4.743-.358-6.457 1.373c-1.715 1.73-2.4 4.392-1.79 6.952l-.002-.005zM573.38 107.957c1.071 3.907 10.376 13.043 10.376 13.043s3.09-13.549 2.018-17.456c-.604-2.646-2.435-4.698-4.763-5.338-2.329-.64-4.777.236-6.369 2.28-1.592 2.043-2.07 4.92-1.242 7.487l-.02-.016z" opacity=".25"/>
        <path stroke="#535461" stroke-width="2" d="M546 157s3.345-34.534 23.277-52.9a52.504 52.504 0 0 0 16.267-28.997A88.047 88.047 0 0 0 587 59"/>
        <path fill="#00BCD4" d="M597.528 50.087C596.18 53.85 586.24 62 586.24 62s-2.143-13.644-.797-17.407c.87-2.43 2.825-4.154 5.13-4.52 2.304-.368 4.607.678 6.042 2.741 1.434 2.064 1.782 4.832.912 7.263v.01zM603.218 76.278C599.61 78.152 586 76.79 586 76.79s7.31-12.214 10.928-14.081c2.334-1.21 5.09-1.036 7.23.457 2.14 1.494 3.339 4.08 3.145 6.784-.194 2.704-1.751 5.116-4.085 6.327zM588.3 105.988c-4.024.3-16.3-5.307-16.3-5.307s11.055-7.358 15.079-7.658c2.602-.194 5.124.862 6.614 2.77 1.49 1.91 1.723 4.38.61 6.483-1.111 2.103-3.4 3.518-6.003 3.712zM569.666 132.856c-3.812.91-16.666-2.791-16.666-2.791s9.272-8.95 13.073-9.854c3.814-.906 7.708 1.19 8.697 4.683.989 3.491-1.3 7.056-5.115 7.962h.01zM570.124 74.77c1.988 3.297 13.157 9.105 13.157 9.105s-.364-13.313-2.352-16.61c-1.984-3.306-6.017-4.31-9.008-2.244-2.992 2.066-3.809 6.421-1.825 9.727l.028.022zM552.95 95.679C555.826 98.847 570 103 570 103s-2.399-14.229-5.258-17.402c-2.859-3.17-7.816-3.482-11.073-.7-3.256 2.782-3.578 7.606-.719 10.775v.006z"/>
        <path fill="#06D6A0" fill-rule="nonzero" d="M535.04 132.222c2.217 3.507 14.958 9.778 14.958 9.778s.139-14.072-2.077-17.58c-2.227-3.41-6.81-4.439-10.314-2.317-3.506 2.122-4.648 6.617-2.572 10.119h.006z"/>
        <path stroke="#535461" stroke-width="2" d="M180 296s-21.04-25.985-19.717-52.062a50.489 50.489 0 0 0-8.395-30.894A85.133 85.133 0 0 0 142 201"/>
        <path fill="#00BCD4" d="M144.517 187.332c1.38 3.585-.635 16.668-.635 16.668s-10.006-7.702-11.385-11.287c-1.376-3.584.202-7.692 3.524-9.177 3.322-1.484 7.13.218 8.506 3.801l-.01-.005zM177.381 234.469C174.65 237.691 161 242 161 242s2.176-14.347 4.907-17.568a7.486 7.486 0 0 1 10.469-.564c3.074 2.694 3.507 7.372.982 10.601h.023z"/>
        <path fill="#06D6A0" fill-rule="nonzero" d="M180.153 263.144c-1.757 3.506-12.146 9.856-12.146 9.856s-.2-14 1.56-17.483c1.776-3.451 5.538-4.547 8.438-2.458 2.9 2.09 3.857 6.586 2.148 10.085z"/>
        <path fill="#04CFAC" d="M139.577 223.696c3.85.282 15.832-5.457 15.832-5.457s-10.332-7.391-14.177-7.68c-3.788-.185-7.163 2.504-7.611 6.064-.449 3.56 2.193 6.697 5.956 7.073z"/>
        <path fill="#00BCD4" d="M145.479 253.991c3.846.266 15.521-5.446 15.521-5.446s-10.64-7.26-14.486-7.526c-2.489-.176-4.889.898-6.297 2.817-1.407 1.919-1.609 4.391-.528 6.486 1.08 2.095 3.28 3.493 5.768 3.669h.022z"/>
        <path fill="#04CFAC" d="M155.4 283.87c3.812.876 16.6-2.967 16.6-2.967s-9.347-8.847-13.16-9.708c-3.814-.872-7.677 1.261-8.627 4.765-.95 3.504 1.372 7.053 5.187 7.925v-.015z"/>
        <path fill="url(#a)" fill-rule="nonzero" d="M529.752 91.46h-.45c.707-.795 1.072-1.59 1.013-2.296l-4.073-4.03 1.554-3.446h-5.235l.97-2.688h-3.102l-34.326 11.315s-.037.472 0 1.145H464V190h96V91.46h-30.248z"/>
        <path fill="#FFF" fill-rule="nonzero" d="M467 94h95v99h-95z"/>
        <path fill="#000" fill-rule="nonzero" d="M527 92c-4.269 6.906-32.782 16-32.782 16l.178-7.198h-5.274c.297-1.424-.299-2.892-1.46-3.601-1.533-.926-1.68-3.928-1.66-5.201H527z" opacity=".1"/>
        <path fill="#9D9CB5" fill-rule="nonzero" d="M519.158 80.027l-34.13 11.199s-.39 4.372 1.731 5.508a3.114 3.114 0 0 1 1.547 3.424h5.589l-.19 6.842s35.867-10.266 35.288-16.916l-4.046-3.994 1.541-3.424h-5.21l.97-2.666-3.09.027z"/>
        <path fill="#06D6A0" fill-rule="nonzero" d="M482.488 123.007h59.055v2.34h-59.055zM482.488 133.345h59.055v2.34h-59.055zM482.488 140.54h59.055v1.872h-59.055zM482.488 150.255h59.055v2.34h-59.055zM482.488 158.585h59.055v2.34h-59.055zM482.488 168.172h59.055v2.34h-59.055z" opacity=".8"/>
        <path fill="url(#b)" fill-rule="nonzero" d="M206.972 95.564h-.225c1.692-4.344 3.256-8.58 3.186-9.39-.15-1.608-3.368 1.888-3.518 1.014-.15-.874 0-4.188-1.462-4.188-1.463 0-2.346 1.721-3.214 1.721-.868 0-4.397-.579-4.397-.579l-4.493 11.422H159V202h84V95.564h-36.028z"/>
        <path fill="#FFF" fill-rule="nonzero" d="M162 99h81v104h-81z"/>
        <path fill="#000" fill-rule="nonzero" d="M211 99c-1.8 5.021-3.828 10.312-4.291 11.575-.897 2.394-1.488 1.12-2.536.802-1.047-.317-2.38.317-2.975 0-.597-.317-4.096 0-4.096 0 .039-.588.039-1.178 0-1.766-.078-.634-4.102 0-4.102 0L196.834 99H211z" opacity=".1"/>
        <path fill="#9D9CB5" fill-rule="nonzero" d="M200.803 86.103L193 105.905s3.83-.562 3.899 0c.04.514.04 1.03 0 1.544 0 0 3.336-.283 3.904 0 .567.284 1.84-.283 2.832 0 .992.284 1.56 1.403 2.414-.704.854-2.106 7.092-17.133 6.949-18.678-.144-1.544-3.263 1.828-3.406.983-.143-.846 0-4.05-1.416-4.05s-2.27 1.665-3.12 1.665c-.848 0-4.253-.562-4.253-.562z"/>
        <path fill="#06D6A0" fill-rule="nonzero" d="M173.016 125.03h59.582v2.34h-59.582zM173.016 131.608h59.582v2.34h-59.582zM173.016 138.427h59.582v2.34h-59.582zM173.016 143.255h59.582v2.34h-59.582zM173.016 150.075h59.582v2.34h-59.582zM173.016 158.645h59.582v2.34h-59.582z" opacity=".8"/>
        <path fill="url(#c)" fill-rule="nonzero" d="M518.78 238.411h-.226c2.079-5.332 3.997-10.542 3.906-11.518-.177-1.957-4.131 2.314-4.286 1.248-.156-1.067 0-5.141-1.795-5.141s-2.872 2.133-3.95 2.133c-1.076 0-5.39-.715-5.39-.715l-5.54 13.993H460V369h103V238.411h-44.22z"/>
        <path fill="#FFF" fill-rule="nonzero" d="M463 241h102v130H463z"/>
        <path fill="#000" fill-rule="nonzero" d="M520 239c-2.283 5.417-4.843 11.087-5.44 12.45-1.159 2.608-1.906 1.214-3.244.87-1.339-.343-3.054.344-3.818 0-.765-.343-5.25 0-5.25 0 .05-.637.05-1.278 0-1.916-.098-.692-5.248 0-5.248 0L501.884 239H520z" opacity=".1"/>
        <path fill="#9D9CB5" fill-rule="nonzero" d="M506.751 224.392L497 249.36s4.784-.71 4.876 0c.046.648.046 1.298 0 1.946 0 0 4.165-.35 4.875 0s2.304-.35 3.547 0c1.243.35 1.948 1.774 3.013-.881 1.066-2.656 8.864-21.608 8.686-23.554-.178-1.946-4.08 2.3-4.257 1.242-.177-1.06 0-5.112-1.77-5.112s-2.836 2.102-3.902 2.102c-1.065 0-5.317-.71-5.317-.71z"/>
        <path fill="#06D6A0" fill-rule="nonzero" d="M483.488 275.4h59.055v5.287h-59.055zM483.488 301.073h59.055v5.287h-59.055zM483.488 331.42h59.055v5.287h-59.055z" opacity=".8"/>
        <path fill="url(#d)" fill-rule="nonzero" d="M222.633 239.993V224h-22.226v15.993H154V366h109V239.993z"/>
        <path fill="#FFF" fill-rule="nonzero" d="M158 243h106v124H158z"/>
        <path fill="#000" fill-rule="nonzero" d="M204 243h22v18h-22z" opacity=".1"/>
        <path fill="#9D9CB5" fill-rule="nonzero" d="M204 228h22v30h-22z"/>
        <path fill="#06D6A0" fill-rule="nonzero" d="M182.51 272.427h59.055v5.287H182.51zM182.51 281.273h59.055v5.287H182.51zM182.51 290.127h59.055v5.287H182.51zM182.51 298.64h59.055v5.287H182.51z" opacity=".8"/>
        <path fill="#B2EDDF" fill-rule="nonzero" d="M227 308h16v13h-16zM181 324h16v13h-16z"/>
        <path fill="url(#e)" fill-rule="nonzero" d="M380.617 222.68h-.15c1.738-6.805 3.047-12.223 3.047-12.223l-7.413 3.49s-5.263-6.981-7.21-5.816c-1.947 1.166-6.223 4.07-6.223 4.07l-5.676-2.91-2.172 13.388H310v96.606l2.88 1.724a863.995 863.995 0 0 0 6.288-2.304l-1.797 4.995 1.212.72 2.044-1.854.756 3.54 2.43 1.455 3.836-2.444-1.073 4.114 3.6 2.148 10.466-3.936-3.155 8.313 2.076 1.246 4.737-.833s-.214 1.66-.348 3.459l4.752 2.846a297.264 297.264 0 0 0 3.782-1.504s-.187 1.815-.273 3.598l3.186 1.912a272.629 272.629 0 0 0 5.719-3.474L358.436 348H419V222.68h-38.383z"/>
        <path fill="#FFF" fill-rule="nonzero" d="M420 226v124h-58.905l2.628-4.938s-3.112 1.976-5.559 3.436l-3.096-1.896c.085-1.76.271-3.56.271-3.56s-1.787.739-3.681 1.487l-4.623-2.816c.133-1.777.335-3.42.335-3.42l-4.601.824-2.016-1.233 3.064-8.228-10.177 3.899-3.505-2.154 1.021-4.07-3.724 2.417-2.362-1.438-.734-3.5-1.99 1.842-1.18-.716 1.75-4.938s-3.804 1.432-6.118 2.277L314 321.574V226h106z"/>
        <path fill="#06D6A0" fill-rule="nonzero" d="M333.499 262.273h59.055v5.287h-59.055zM333.499 274.08h59.055v5.287h-59.055zM333.499 287.547h59.055v5.287h-59.055zM333.47 299.353h11.14v5.287h-11.14z" opacity=".8"/>
        <path fill="#000" fill-rule="nonzero" d="M379 254.005c-2.88 11.432-7.076 27.27-8.17 26.991-1.7-.465-4.356-3.742-4.356-3.742s-6.248 5.908-9.276 2.86c-3.028-3.048-7.198-.957-7.198-.957L354.037 254l24.963.005z" opacity=".1"/>
        <path fill="#9D9CB5" fill-rule="nonzero" d="M356.097 240.278L350 278.16s4.189-2.104 7.235.96c3.045 3.066 9.334-2.881 9.334-2.881s2.672 3.284 4.381 3.757c1.71.472 11.05-38.57 11.05-38.57l-7.24 3.446s-5.14-6.891-7.048-5.743c-1.907 1.149-6.075 4.02-6.075 4.02l-5.54-2.871z"/>
        <path fill="url(#f)" fill-rule="nonzero" d="M384.02 62.649V59h-57.022c-2.616 0-1.015 3.649-1.015 3.649H295V144h136V62.616l-46.98.033z"/>
        <path fill="#FFF" fill-rule="nonzero" d="M299 66h134v80H299z"/>
        <path fill="#000" fill-rule="nonzero" d="M384.785 79h-52.606s-.567-6.145 1.278-7.283c1.846-1.138-5.25-5.145-5.25-5.145A5.986 5.986 0 0 1 328 66h56.785v1.86s7.234 6.427 0 11.14z" opacity=".1"/>
        <path fill="#9D9CB5" fill-rule="nonzero" d="M329.457 60H384.8v5.161s7.202 6.814 0 11.839h-52.374s-.565-6.53 1.272-7.74c1.838-1.209-5.227-5.467-5.227-5.467S326.917 60 329.457 60z"/>
        <path fill="#06D6A0" d="M317 89h101v2H317zM317 95h51v2h-51zM317 102h53v2h-53zM317 108h48v2h-48zM317 117h81v2h-81zM317 122h81v2h-81z" opacity=".4"/>
        <path fill="url(#g)" fill-rule="nonzero" d="M456.963 445.55a130.468 130.468 0 0 1-1.544-7.664s.219-4.443-1.769-7.777v-9.315a27.731 27.731 0 0 1 2.062-4.287c1.475-2.584 0-12.038 0-12.038s-5.46-13.33-4.13-21.782-11.22-37.544-11.22-37.544a37.027 37.027 0 0 1 1.182-8.313c.13-.571.184-1.157.16-1.742v-.214.07c-.187-5.575-4.579-16.026-4.579-16.026l.588-19.922s2.805-11.748-1.769-27.51c-1.602-5.505-2.623-9.906-3.27-13.304a92.966 92.966 0 0 1-.208-1.109c9.42-1.442 16.61-2.642 16.61-2.642s-5.465-22.94-9.151-26.949c-3.687-4.009-6.641-16.615-6.641-16.615s-1.924-16.191 1.18-20.902c3.105-4.711 3.537-12.9 3.537-12.9s7.085-5.157 7.972-7.45c.887-2.295 2.361-7.45 2.361-10.184 0-2.734-.887-5.161-.588-6.592.3-1.431-2.067-6.877-.886-9.46a6.987 6.987 0 0 0 .47-2.562v-.027a35.181 35.181 0 0 0-.625-6.726s-3.206-2.836-7.005-3.752l-.155-.616-.4-1.608a7.518 7.518 0 0 0-.7-.418v-.585l-.064-2.326 1.111-5.236c2.174-9.111-9.927-10.457-9.927-10.457a6.338 6.338 0 0 0-3.424-3.033c-2.437-.863-.406 13.688.732 14.615.86.703 3.504 5.264 4.776 7.504l.208.37c-.193.18-.372.375-.534.584l.46 3.157.069.482a13.135 13.135 0 0 0-1.929 3.307s2.217 2.433 1.774 5.156c-.443 2.723.679 6.115.732 6.303-.134-.15-1.688-1.844-3.243-1.431-1.555.413-5.877 1.72-5.877 1.72s-3.248.574-2.95 1.292c.3.718-2.216 3.87-2.216 3.87l-8.725-8.297c-.086-.246-.171-.493-.251-.75a20.224 20.224 0 0 1-.759-3.634c.95-.228 1.882-.525 2.789-.89a6.019 6.019 0 0 0 2.415-1.549c.876-1.072 1.068-2.47 1.405-3.752.69-2.55 2.175-4.823 3.238-7.24a23.65 23.65 0 0 0 1.741-13.008 8.56 8.56 0 0 0-1.34-3.806c-1.422-1.967-4.008-2.765-5.878-4.336-1.87-1.57-3.088-3.96-5.278-5.14-1.977-1.071-4.392-.937-6.62-.573a35.575 35.575 0 0 0-12.368 4.513c-1.272.756-2.671 1.608-4.135 1.361-1.25-.225-2.17-1.233-2.976-2.192.01-.042.022-.083.037-.123l-.096-.113a15.483 15.483 0 0 0-1.357 6.55c0 .348 0 .697.043 1.072v.37c.008.1.008.2 0 .3 0 .156-.022.31-.064.46a3.42 3.42 0 0 1-.818 1.185c-.266.3-.504.625-.71.97.037-.118.074-.236.117-.354a5.183 5.183 0 0 0-.903 2.755 2.76 2.76 0 0 0 .657 1.978c.435.428.911.813 1.421 1.147-1.232 6.887 1.946 13.814 7.961 17.355.102.246.198.498.3.75 1.11 2.948 1.95 6.378 1.602 9.545-.032.236-.064.467-.107.697-.112.118-.219.241-.315.365 0 0-14.425.139-17.797-2.943-3.37-3.082-8.548 7.504-8.548 7.504s-5.166 1.007-6.197 0c-1.032-1.008-7.085-.14-7.085-.14s-3.692-3.585-9.002-3.296a26.641 26.641 0 0 0-6.61-3.687l-.165-.06a7.458 7.458 0 0 0-3.248-.412s-7.085-5.896-9.147-9.026c-2.062-3.13-11.909-14.846-11.952-14.9l-.037-.535-.112-1.705a6.163 6.163 0 0 1-.882.075l-.197-.59a32.114 32.114 0 0 0-2.095-4.823s0-2.144.625-2.68-.256-8.42-.256-8.42-6.385-14.975-12.101-3.794c0 0-10.809 7.23-1.737 15.65 0 0 3.617 1.763 4.13 3.157.337.905 1.566 3.43 2.394 5.113.139.278.262.536.368.75l-.101.086.133 1.404.054.536c-1.71.975-2.87 1.935-2.586 2.68a15.937 15.937 0 0 1 1.031 3.87s12.545 15.762 14.169 22.51c0 0 33.66 20.061 44.718 21.498l-1.918 10.027s-.593 6.02-.443 8.169c.15 2.149-1.33 11.898-1.33 11.898s-1.918 14.326-3.543 16.33c-1.624 2.005-1.325 10.608-1.325 10.608a72.594 72.594 0 0 1-2.217 12.182c-1.603 5.445-.438 12.177-.438 12.177s-5.61 12.9 7.822 4.16c0 0 6.593-.413 14.185-.67v.755c0 .98-.032 2.042-.043 3.162-.102 7.386-.144 17.564.187 25.266.588 13.613 4.723 40.556 4.723 40.556v13.533a18.338 18.338 0 0 0-.39 3.87c-.091 4.77 1.17 9.47 3.638 13.55l.914 8.934s2.426 5.949 2.474 9.502c-.012.29-.048.579-.107.863-.09.455-.13.92-.118 1.383-.139 4.1 2.324 13.903 2.324 13.903s.15 9.888 1.603 10.462c1.261.488-1.683 5.697-2.564 7.193 0-.097-.038-.188-.054-.284-.112.192-.181.3-.181.3a7.036 7.036 0 0 0-.46 2.497 3.6 3.6 0 0 0 1.635 3.479c2.805 1.72 4.311 3.151 1.934 3.751-.876.134-1.744.313-2.602.536a13.271 13.271 0 0 1-.123-.332 1.609 1.609 0 0 0-.972 1.731c-.064.724.176 1.78.881 3.355 2.362 5.301 3.997 7.311 3.997 7.311l1.132-.129c-.172.431-.393.841-.657 1.222a4.733 4.733 0 0 1-1.672 1.485 5.022 5.022 0 0 1-2.014.691 5.705 5.705 0 0 0-4.184 2.042c-1.469 1.908-2.393 4.513.535 6.796l10.557 3.656s18.165 2.363 17.187-1.72a112.439 112.439 0 0 1-1.544-7.665s.203-3.988-1.474-7.246a8.672 8.672 0 0 0-.641-1.072l.64-.075s1.326-9.026 3.1-10.72c.406-.396.496-.702.4-.932.187-.493-.278-.783-.87-.943l-.129.353a8.586 8.586 0 0 0-1.763-.198s-.593-4.727 1.325-6.432c.316-.394.452-.904.374-1.404a7.612 7.612 0 0 0-.198-1.924c0 .032-.042.075-.07.107-.966-4.287-4.236-11.11-4.236-11.11s-.15-4.288 1.031-6.014c1.181-1.726-.144-23.363-.144-23.363s.443-10.456-.887-15.328 1.603-10.607 1.603-10.607 0-.112-.032-.31l.037-.076s-.064-.643-.17-1.645a.72.72 0 0 0-.038.096c-.294-2.765-.86-7.782-1.272-10.103-.593-3.296.145-19.059.145-19.059l2.67-6.731 4.724 11.603 5.022 15.479s2.484 3.27 2.543 6.582c0 .16 0 .321-.032.482a8.7 8.7 0 0 0-.059 1.034 9.219 9.219 0 0 0 1.528 5.516s1.33 7.305 3.398 9.17c2.068 1.865 2.063 5.445 2.063 5.445s2.51 10.602 3.691 12.467c.994 1.57 1.069 5.895 1.037 7.209v.385s.347 3.79.336 6.968c0 .391 0 .772-.037 1.13v-.08a11.461 11.461 0 0 1-.304 2.578 1.144 1.144 0 0 0-.043.145c0-.177 0-.359.043-.536a27.266 27.266 0 0 0-.738 6.609c-.07 3.81.535 8.329 2.81 10.976 3.986 4.588 6.497 4.015 6.497 4.015s-1.923 5.73-4.274 6.876c-.089.045-.173.1-.251.16 0-.112-.043-.219-.059-.331-.491.428-.689 1.2-.689 2.143-.171 2.52 1.41 6.614 2.922 8.495.558.55 1.243.95 1.993 1.169-.12.083-.245.16-.374.23a7.069 7.069 0 0 1-.812.38 3.88 3.88 0 0 1-1.202.317 5.646 5.646 0 0 0-4.194 2.015c-1.47 1.903-2.393 4.508.534 6.791l10.558 3.655s18.133 2.359 17.166-1.726z"/>
        <path fill="#2D293D" fill-rule="nonzero" d="M389.18 451.31l-10.317-3.694c-2.849-2.308-1.942-4.94-.502-6.869 1-1.25 2.49-2.002 4.085-2.064a4.811 4.811 0 0 0 1.969-.699 4.685 4.685 0 0 0 1.619-1.5 7.66 7.66 0 0 0 1.176-4.003s11.33-3.332 14.427 0a8.338 8.338 0 0 1 1.37 2.02c1.62 3.294 1.447 7.324 1.447 7.324s.577 3.613 1.51 7.746c.934 4.134-16.785 1.74-16.785 1.74zM437.17 447.312l-10.312-3.694c-2.842-2.308-1.936-4.941-.501-6.865a5.471 5.471 0 0 1 4.082-2.064c.409-.04.808-.148 1.181-.32.272-.11.537-.239.793-.384 2.885-1.593 2.81-5.504 2.81-5.504s11.325-3.332 14.421 0c.414.45.776.946 1.079 1.479 1.941 3.37 1.726 7.866 1.726 7.866s.577 3.62 1.515 7.747c.938 4.128-16.794 1.74-16.794 1.74z"/>
        <path fill="#000" fill-rule="nonzero" d="M399.547 433.62a9.155 9.155 0 0 1 1.453 2.214L383 438a8.594 8.594 0 0 0 1.247-4.385s12.016-3.638 15.3.006zM452 429.889v3.114c-2.76 4.262-16.122 3.331-20 1.19.285-.109.562-.234.83-.376 3.02-1.554 2.94-5.372 2.94-5.372s11.855-3.252 15.095 0c.436.44.817.924 1.135 1.444z" opacity=".1"/>
        <path fill="#575988" fill-rule="nonzero" d="M454.359 416.037a28.188 28.188 0 0 0-2.021 4.276v11.299c-2.89 4.714-17.918 3.143-19.939.572-2.02-2.571-4.187-9.29-1.88-10.433 2.307-1.144 4.182-6.858 4.182-6.858s-2.458.572-6.36-4.003c-3.9-4.575-2.744-14.72-2.015-17.146.73-2.427 0-10.578 0-10.578s.146-5.713-1.01-7.573c-1.157-1.86-3.583-12.433-3.583-12.433s0-3.57-2.026-5.43c-2.026-1.86-3.323-9.145-3.323-9.145a9.305 9.305 0 0 1-1.443-6.141c.432-3.576-2.459-7.435-2.459-7.435l-4.911-15.43-4.62-11.577-2.6 6.718s-.723 15.72-.145 19.006c.578 3.288 1.443 12.005 1.443 12.005s-2.886 5.714-1.589 10.572c1.297 4.859.87 15.292.87 15.292s1.297 21.577.14 23.292c-1.156 1.716-1.01 6.003-1.01 6.003s5.944 12.57 4.047 14.286c-1.896 1.716-1.302 6.414-1.302 6.414s4.047 0 2.313 1.716c-1.735 1.716-3.037 10.69-3.037 10.69L384.617 436s-1.62-2.004-3.912-7.29c-2.29-5.286.432-4.715 2.756-5.286 2.323-.572.854-2-1.891-3.742s-1.157-5.574-1.157-5.574 4.188-7.002 2.745-7.574c-1.442-.572-1.588-10.433-1.588-10.433s-2.891-11.716-2.162-14.859c.73-3.143-2.34-10.668-2.34-10.668l-1.01-9.006c-5.203-8.857-3.177-17.002-3.177-17.002v-13.843s-4.047-26.864-4.625-40.44c-.368-8.695-.265-20.561-.146-27.964.07-4.153.146-6.905.146-6.905L430.665 249s-.065 2.849 1.135 9.172c.632 3.388 1.62 7.776 3.198 13.266 4.48 15.719 1.735 27.435 1.735 27.435l-.578 19.856s5.49 13.292 4.322 17.862a37.61 37.61 0 0 0-1.156 8.29s12.293 29.001 10.99 37.451c-1.302 8.45 4.048 21.722 4.048 21.722s1.443 9.407 0 11.983z"/>
        <path fill="#000" fill-rule="nonzero" d="M417 341.65l20-2.65s-11.331 11.507-20 2.65z" opacity=".05"/>
        <path fill="#000" fill-rule="nonzero" d="M434.011 320s.563 6.538-3.011 9c0 0 6.397-1.126 3.011-9zM431 300s-15.558 13.013-21.217 11.937C404.123 310.86 431 300 431 300zM392 349s-11.638 2.525-11.993 6.972C379.653 360.419 392 349 392 349z" opacity=".1"/>
        <path fill="#000" fill-rule="nonzero" d="M397.132 408s-17.126 3.098-12.262 5.207c4.863 2.109 12.842 3.792 12.842 3.792s5.515.284-.58-8.999z" opacity=".05"/>
        <g fill="#000" fill-rule="nonzero" opacity=".05">
            <path d="M381.58 417.627a3.356 3.356 0 0 1-1.57-2.467l-.174.302s-1.597 3.898 1.163 5.63l.896.584c.505-.092 1.054-.162 1.586-.297 2.336-.578.858-2.02-1.901-3.752zM403.656 416.472c.467-.432.45-1.539.163-2.964-.772 1.118-.956 2.856-.973 4.178.18-.457.456-.871.81-1.214zM401.016 344.67a19.244 19.244 0 0 0-1.157 5.306 20.79 20.79 0 0 1 1.325-3.643s-.065-.654-.168-1.663zM440.252 337.09a6.273 6.273 0 0 0 .157-1.575 42.777 42.777 0 0 0-.472 2.952c.092-.448.195-.906.315-1.376zM400.603 395.98c.239-.356.37-1.544.435-3.206-.544 1.052-.766 2.753-.837 4.048.1-.295.235-.578.402-.842zM404.204 423.198c-1.195 3.239-2.004 8.864-2.004 8.864l-17.562 2.019s-1.63-2.02-3.933-7.358a17.94 17.94 0 0 1-.494-1.274c-1.054.48-1.467 1.566-.087 4.734 2.325 5.34 3.933 7.364 3.933 7.364l17.562-2.036s1.309-9.09 3.053-10.796c.858-.864.31-1.301-.468-1.517zM380.999 397.276s.146 9.96 1.597 10.537c.733-1.646 1.222-3.239.543-3.471-1.45-.572-1.597-10.532-1.597-10.532s-2.906-11.838-2.173-15.012c.733-3.175-2.325-10.824-2.325-10.824l-1.016-9.09c-5.231-8.95-3.194-17.178-3.194-17.178v-13.992s-4.069-27.137-4.65-40.848c-.37-8.778-.266-20.762-.146-28.238 0-1.355.048-2.554.07-3.563l-.505.048s-.076 2.78-.147 6.975c-.12 7.476-.222 19.434.147 28.243.581 13.712 4.65 40.843 4.65 40.843v14.003s-2.037 8.227 3.194 17.172l1.016 9.096s3.047 7.65 2.325 10.797c-.723 3.147 2.21 15.034 2.21 15.034zM432.701 430.183a16.762 16.762 0 0 1-2.781-6.855c-1.793 1.62.266 7.854 2.173 10.321 2.031 2.597 17.138 4.184 20.044-.578v-2.747c-3.9 3.87-17.513 2.316-19.436-.14zM454.777 413.875a28.287 28.287 0 0 0-2.037 4.319v2.024c.332-.74.804-1.727 1.456-2.888.418-.75.592-2.073.636-3.579-.022.049-.038.092-.055.124zM433.592 416.148a27.29 27.29 0 0 0 1.434-3.428s-2.471.578-6.393-4.038c-2.852-3.363-3.015-9.717-2.608-13.857-.733 2.456-1.89 12.702 2.026 17.317 2.575 3.023 4.504 3.817 5.541 4.006zM426.02 384.142c.255 2.844.352 5.7.288 8.556.074-.451.174-.898.298-1.339.734-2.45 0-10.677 0-10.677s.147-5.777-1.015-7.65c-1.163-1.873-3.656-12.556-3.656-12.556s0-3.611-2.032-5.485c-2.031-1.873-3.34-9.236-3.34-9.236a9.454 9.454 0 0 1-1.45-6.208c.434-3.606-2.473-7.503-2.473-7.503l-4.937-15.59-4.645-11.688-2.618 6.78s-.038.853-.087 2.192l2.124-5.511 4.644 11.692 4.938 15.585s2.906 3.897 2.472 7.509a9.432 9.432 0 0 0 1.45 6.202s1.31 7.363 3.341 9.237c2.032 1.873 2.07 5.484 2.07 5.484s2.471 10.683 3.634 12.557c1.162 1.873.994 7.649.994 7.649z"/>
        </g>
        <path fill="#FFCDD3" fill-rule="nonzero" d="M436.772 119.3l-.97 5.142.058 2.287.039 1.691-5.437.58-.607-1.217c-1.121-2.203-3.447-6.687-4.204-7.377-1-.917-2.786-15.218-.64-14.37 1.307.55 2.38 1.604 3.014 2.962 0 0 10.65 1.343 8.747 10.301z"/>
        <path fill="#000" fill-rule="nonzero" d="M437 128.394l-6.295.606-.705-1.218c.902-.87 3.48-2.847 6.95-1.054l.05 1.666z" opacity=".1"/>
        <path fill="#DCE6F2" fill-rule="nonzero" d="M438 131.014L430.575 133l-.157-1.262-.418-3.38s2.929-4.454 7.178-1.12l.368 1.722.454 2.054z"/>
        <path fill="#FFCDD3" fill-rule="nonzero" d="M310 120.426L301.163 125s-.338-.672-.8-1.626c-.846-1.696-2.097-4.254-2.44-5.17-.525-1.408-4.222-3.186-4.222-3.186-9.26-8.513 1.775-15.829 1.775-15.829 5.839-11.299 12.354 3.837 12.354 3.837s.902 7.977.265 8.513c-.637.537-.637 2.71-.637 2.71a32.213 32.213 0 0 1 2.13 4.877c.265.813.412 1.3.412 1.3z"/>
        <path fill="#000" fill-rule="nonzero" d="M310 120.37l-8.253 4.63s-.315-.68-.747-1.645c1.163-1.015 5.3-4.509 6.658-4.35.65.084 1.305.1 1.958.05.247.822.384 1.316.384 1.316z" opacity=".1"/>
        <path fill="#DCE6F2" fill-rule="nonzero" d="M311 122.326L302.315 127l-.172-2.042-.143-1.429s5.029-4.706 6.515-4.524a7.132 7.132 0 0 0 2.268 0l.099 1.709.118 1.612z"/>
        <path fill="#FFCDD3" fill-rule="nonzero" d="M415 154.104s-39.456 4.668-32.082 2.151c5.129-1.753 7.18-5.178 7.6-8.974.349-3.178-.43-6.614-1.466-9.572a42.024 42.024 0 0 0-3.529-7.474s30.164-17.401 24.103-1.613a26.412 26.412 0 0 0-1.708 7.495 22.036 22.036 0 0 0 .774 7.588c1.143 4.012 3.327 7.613 6.308 10.4z"/>
        <path fill="#000" fill-rule="nonzero" d="M409.135 126.771a25.614 25.614 0 0 0-1.85 7.644c-3.077 2.55-6.454 2.386-10.787 2.386-3.333 0-7.016.795-9.676-.79a41.777 41.777 0 0 0-3.822-7.622s32.673-17.745 26.135-1.618z" opacity=".1"/>
        <circle cx="396.5" cy="122.5" r="16.5" fill="#FFCDD3" fill-rule="nonzero"/>
        <path fill="#000" fill-rule="nonzero" d="M415 153.924s-39.456 4.958-32.082 2.285c5.129-1.862 7.18-5.5 7.6-9.534 1.964-2.364 5.913-4.078 8.446-4.986a10.683 10.683 0 0 1 7.18-.132c.92.306 1.797.76 2.6 1.348 1.132 4.246 3.297 8.06 6.256 11.019zM438 132.152L430.165 134l-.165-1.175c2.207-2.83 4.99-3.172 7.521-2.58l.479 1.907zM311 121.53l-8.825 4.47-.175-1.952c3.155-1.911 8.44-3.878 8.9-4.048l.1 1.53zM430 257.464c-15.675 2.32-37.983 5.347-41.523 4.335-2.935-.84-12.313-.75-20.477-.494.068-3.836.142-6.38.142-6.38L428.895 249s-.063 2.622 1.105 8.464z" opacity=".1"/>
        <path fill="#656691" fill-rule="nonzero" d="M447 254.385s-52.313 9.137-57.933 7.397c-5.619-1.74-34.436.146-34.436.146-12.972 8.84-7.555-4.208-7.555-4.208s-1.14-6.81.427-12.32a76.545 76.545 0 0 0 2.132-12.326s-.282-8.676 1.285-10.726c1.568-2.05 3.418-16.528 3.418-16.528s1.429-9.859 1.285-12.033c-.144-2.175.426-8.265.426-8.265l1.86-10.13c-10.662-1.447-43.185-21.744-43.185-21.744-1.567-6.817-13.686-22.775-13.686-22.775a17.042 17.042 0 0 0-.997-3.916c-.858-2.32 11.975-6.957 11.975-6.957s9.549 11.887 11.543 15.075c1.994 3.189 8.84 9.137 8.84 9.137a6.75 6.75 0 0 1 3.134.418c.059 0 .107.032.166.049.058.016 0 0 0 0 3.199 1.133 6.397 3.725 6.397 3.725 5.135-.287 8.696 3.335 8.696 3.335s5.865-.868 6.84.146c.976 1.014 5.988 0 5.988 0s4.99-10.731 8.27-7.591c3.278 3.14 17.188 2.971 17.188 2.971 1.855-2.505 6.366-4.3 9.186-5.227a12.103 12.103 0 0 1 7.464-.125 9.397 9.397 0 0 1 2.933 1.443l8.44 8.405s2.426-3.189 2.132-3.915c-.293-.727 2.853-1.302 2.853-1.302s4.132-1.307 5.7-1.74c1.567-.434 3.006 1.29 3.134 1.442-.053-.185-1.125-3.693-.709-6.372.416-2.679-1.711-5.222-1.711-5.222 4.99-12.472 16.25-2.028 16.25-2.028s1.285 6.816.144 9.425c-1.14 2.608 1.141 8.134.853 9.565-.288 1.432.57 3.915.57 6.67s-1.423 7.977-2.281 10.303c-.859 2.327-7.726 7.51-7.726 7.51s-.432 8.265-3.423 13.048c-2.99 4.783-1.14 21.148-1.14 21.148s2.852 12.76 6.397 16.81c3.546 4.051 8.856 27.282 8.856 27.282z"/>
        <path fill="#000" fill-rule="nonzero" d="M369.596 159s-1.67-4.305-3.187-4.7a38.547 38.547 0 0 1-4.409-1.694l.977-1.606s5.71 1.342 6.619 2.777c.909 1.435 0 5.223 0 5.223zM341 149.051c-.261 1.556-12 2.949-12 2.949l5.919-7 .148.058c2.998 1.219 5.933 3.993 5.933 3.993z" opacity=".1"/>
        <circle cx="303.5" cy="128.5" r="1.5" fill="#575988" fill-rule="nonzero"/>
        <circle cx="306.5" cy="132.5" r="1.5" fill="#575988" fill-rule="nonzero"/>
        <circle cx="307.5" cy="134.5" r="1.5" fill="#575988" fill-rule="nonzero"/>
        <circle cx="308.5" cy="136.5" r="1.5" fill="#575988" fill-rule="nonzero"/>
        <circle cx="445" cy="137" r="1" fill="#575988" fill-rule="nonzero"/>
        <circle cx="445" cy="142" r="1" fill="#575988" fill-rule="nonzero"/>
        <path fill="#000" fill-rule="nonzero" d="M370 198c-.13-.17 32.581 41.642 58 17.481 0-.01-40.14 5.51-58-17.48zM351 221s19.008.521 21 5.92v5.624a3.657 3.657 0 0 1-3.537 0c-1.919-1.042-13.41-6.775-17.463-4.018V221z" opacity=".1"/>
        <path fill="#656691" fill-rule="nonzero" d="M352 220s18.105.514 20 5.92v5.623a3.335 3.335 0 0 1-3.37 0c-1.822-1.022-12.772-6.794-16.63-4.017V220z"/>
        <path fill="#000" fill-rule="nonzero" d="M361 179s2.301 5.411 7.802 12.229c3.4 4.171 7.52 7.81 12.198 10.771 0 0-19.666-20.473-20-23zM356 155s3.346 14.943 12 20l-12-20zM350.287 157.005c-.08-.269-2.86 11.49 10.713 17.995-.005 0-5.769-2.042-10.713-17.995zM435.005 148.01c-.2 0 6.246 4.782 7.995 6.99 0 .017-4.208-7.305-7.995-6.99z" opacity=".1"/>
        <path fill="#2D293D" fill-rule="nonzero" d="M392.086 138.15c.24.873.532 1.83 1.318 2.287.497.239 1.042.36 1.594.356 5.153.32 10.514.532 15.285-1.44a5.77 5.77 0 0 0 2.321-1.543c.845-1.036 1.01-2.445 1.35-3.721.67-2.526 2.093-4.786 3.124-7.183a24.15 24.15 0 0 0 1.673-12.9 8.74 8.74 0 0 0-1.29-3.78c-1.371-1.95-3.858-2.743-5.67-4.295-1.811-1.553-2.97-3.93-5.078-5.1-1.902-1.063-4.25-.93-6.376-.568a33.593 33.593 0 0 0-11.9 4.471c-1.222.755-2.567 1.622-3.98 1.356-1.232-.234-2.125-1.27-2.922-2.244a15.733 15.733 0 0 0-1.27 7.37c.055.37.042.746-.037 1.11a3.297 3.297 0 0 1-.786 1.17c-1.27 1.479-2.067 3.818-.808 5.317.532.649 1.387 1.005 1.918 1.665.957 1.19.633 2.897.611 4.418a2.25 2.25 0 0 0 .372 1.5c.478.579 1.35.627 2.088.499.739-.128 1.493-.378 2.22-.213a3.72 3.72 0 0 1 1.935 1.489c2.38 3.004 3.31 6.359 4.308 9.98z"/>
        <g fill="#000" fill-rule="nonzero" opacity=".1">
            <path d="M413.547 135.242a6.094 6.094 0 0 1-2.442 1.552c-5.03 2.002-10.656 1.772-16.077 1.445a3.854 3.854 0 0 1-1.677-.353c-.821-.466-1.117-1.424-1.385-2.301-1.051-3.672-2.029-7.022-4.532-10.073a3.895 3.895 0 0 0-2.035-1.499c-.765-.166-1.559.086-2.335.214-.777.129-1.677.08-2.197-.503a2.19 2.19 0 0 1-.39-1.51c0-1.53.357-3.253-.643-4.447-.56-.669-1.442-1.022-2.023-1.675-.827-.947-.805-2.226-.341-3.42-.95 1.445-1.364 3.302-.252 4.56.56.658 1.459 1.012 2.018 1.68 1 1.194.665 2.918.642 4.448a2.19 2.19 0 0 0 .391 1.51c.503.583 1.42.631 2.197.503.776-.129 1.57-.38 2.335-.214a3.895 3.895 0 0 1 2.035 1.498c2.503 3.05 3.481 6.423 4.532 10.073.251.872.558 1.836 1.386 2.301a3.854 3.854 0 0 0 1.676.354c5.42.326 11.06.535 16.077-1.446a6.094 6.094 0 0 0 2.442-1.552c.34-.414.6-.88.772-1.38-.056.08-.112.16-.174.235zM378.95 110.43c.248-.247.439-.54.56-.862.082-.368.096-.747.039-1.119-.148-2.086.135-4.179.832-6.16l-.095-.112a15.225 15.225 0 0 0-1.335 7.418c.027.277.027.557 0 .835z"/>
        </g>
        <path fill="#000" fill-rule="nonzero" d="M388 147.492s21.105 3.7 23-.492M431 138s10.655 0 13 4" opacity=".1"/>
        <path fill="#04CFAC" d="M163.875 200.392c-.65 3.815-8.94 13.608-8.94 13.608s-4.537-12.35-3.867-16.154c.393-2.496 2.003-4.571 4.211-5.43 2.209-.858 4.675-.368 6.455 1.283 1.78 1.651 2.598 4.208 2.141 6.693z"/>
    </g>
</svg>
